<svg xmlns="http://www.w3.org/2000/svg" xml:space="preserve" width="48" height="48"><path d="M248.56 413.942h4v7h-4z" style="color:#000;fill:#ff5576;fill-opacity:1;fill-rule:evenodd;stroke-width:2;stroke-linecap:round;stroke-linejoin:round;stroke-miterlimit:4.1;-inkscape-stroke:none" transform="translate(-242 -377)"/><path d="M285.549 381.942s-1.13.014-2.316.021c-.594.003-1.202.005-1.686.002s-.954-.027-.87-.017a1 1 0 0 0-1.11.877 1 1 0 0 0 .877 1.111c.32.038.594.027 1.091.03.43.002.948.002 1.465 0l-12.26 11.443-3.347-5.022a1 1 0 0 0-1.48-.207l-20 17a1 1 0 1 0 1.296 1.524l19.143-16.272 3.377 5.065a1 1 0 0 0 1.513.175l13.319-12.43v2.7a1 1 0 0 0 1 1 1 1 0 0 0 1-1v-5a1 1 0 0 0-1.012-1z" style="color:#000;fill:#808b9b;fill-opacity:1;fill-rule:evenodd;stroke-linecap:round;stroke-linejoin:round;stroke-miterlimit:4.1;-inkscape-stroke:none" transform="translate(-242 -377)"/><path d="M251.56 380.985a1.045.957 0 0 0-1.044.957v1.564c-1.66.408-2.914 1.76-2.914 3.385 0 1.951 1.809 3.51 3.959 3.51 1.068 0 1.869.728 1.869 1.6 0 .87-.801 1.599-1.87 1.599-1.067 0-1.866-.728-1.866-1.6a1.045.957 0 0 0-1.047-.955 1.045.957 0 0 0-1.045.955c0 1.625 1.254 2.977 2.914 3.385v1.565a1.045.957 0 0 0 1.045.957 1.045.957 0 0 0 1.045-.957v-1.565c1.66-.409 2.914-1.761 2.914-3.385 0-1.95-1.81-3.511-3.96-3.511-1.067 0-1.866-.727-1.866-1.598 0-.871.799-1.6 1.867-1.6s1.869.729 1.869 1.6a1.045.957 0 0 0 1.043.955 1.045.957 0 0 0 1.047-.955c0-1.624-1.254-2.976-2.914-3.385v-1.564a1.045.957 0 0 0-1.045-.957z" style="color:#000;fill:#808b9b;fill-opacity:1;fill-rule:evenodd;stroke:none;stroke-width:.999995;stroke-linecap:round;stroke-linejoin:round;stroke-miterlimit:4.1;-inkscape-stroke:none" transform="translate(-242 -377)"/><path d="M256.556 408.942h4v12h-4v-12z" style="color:#000;fill:#fcca3d;fill-opacity:1;fill-rule:evenodd;stroke-width:2;stroke-linecap:round;stroke-linejoin:round;stroke-miterlimit:4.1" transform="translate(-242 -377)"/><path d="M264.556 404.053h4v16.889h-4v-16.89zM272.556 400.942h4v20h-4v-20z" style="color:#000;fill:#e7e7e7;fill-opacity:1;fill-rule:evenodd;stroke-width:2;stroke-linecap:round;stroke-linejoin:round;stroke-miterlimit:4.1" transform="translate(-242 -377)"/><path d="M280.556 394.942h4v26h-4v-26z" style="color:#000;fill:#e7e7e7;fill-opacity:1;fill-rule:evenodd;stroke-width:2;stroke-linecap:round;stroke-linejoin:round;stroke-miterlimit:4.1;-inkscape-stroke:none" transform="translate(-242 -377)"/></svg>